<svg id="Capa_1" enable-background="new 0 0 512 512" height="512" viewBox="0 0 512 512" width="512" xmlns="http://www.w3.org/2000/svg"><g><g><g><path clip-rule="evenodd" d="m490.958 495.656c0 4.762-3.798 8.674-8.532 8.844h-28.941-27.212c-9.273-25-17.773-60-17.773-60l23.556-83.859 10.261 4.706c33.93 15.534 48.641 46.262 48.641 79.512z" fill="#eb5468" fill-rule="evenodd"/></g><g><path clip-rule="evenodd" d="m200.045 221.12c-19.303-.198-38.04-10.403-38.04-29.254v-9.78c0-9.694 7.937-17.547 17.603-17.547h16.781l19.945 27.793c-.001 7.371-2.001 22.668-16.289 28.788z" fill="#ffbc85" fill-rule="evenodd"/></g><g><path clip-rule="evenodd" d="m261.811 105.522c28.522-31.189 33.856-70.522-14.882-87.279-35.744 16.838-50.541 52.469-50.541 100.29v46.006c41.279-8.206 57.279-26.206 65.423-59.017z" fill="#2b4d66" fill-rule="evenodd"/></g><g><path clip-rule="evenodd" d="m418.478 118.533c0-67.294-29.338-110.494-105.078-111.033h-11.962c-21.911.17-39.939 3.883-54.509 10.743-16.072 24.378-11.678 68.287 14.882 87.279 3.345.567 6.803 1.446 10.346 2.665 39.202 13.635 42.242 30.106 70.843 33.48 29.508 3.515 44.333 12.333 75.478 22.873z" fill="#375e7d" fill-rule="evenodd"/></g><g><path clip-rule="evenodd" d="m216.333 445s-18 45.333-27.768 59.5h-27.184-28.969c-4.705-.17-8.504-4.082-8.504-8.844v-50.797c0-33.222 14.711-63.978 48.641-79.512l10.261-4.706z" fill="#eb5468" fill-rule="evenodd"/></g><g><path clip-rule="evenodd" d="m418.478 164.54c-3.657-39.515-43.341-52.016-72.849-55.531-28.601-3.373-34.27 12.813-73.472-.822-3.543-1.219-7.001-2.098-10.346-2.665-39.429-6.52-65.422 31.238-65.422 59.018v33.676c0 7.37 1.276 15.109 3.657 22.904 7.143 23.358 24.122 47.339 45.977 64.687l52.977 26.193 69.816-26.194c21.883-17.348 38.862-41.329 45.977-64.687 2.409-7.795 3.685-15.534 3.685-22.904z" fill="#ffe5c1" fill-rule="evenodd"/></g><g><path clip-rule="evenodd" d="m452.861 191.866c0 18.85-18.765 29.055-38.068 29.254-8.793-7.12-16.293-15.75-16.293-23.12l19.978-33.46h16.752c9.694 0 17.631 7.852 17.631 17.547z" fill="#ffbc85" fill-rule="evenodd"/></g><g><path clip-rule="evenodd" d="m432.056 460.648h-249.245l-10.006-160.101c-1.332-7.994 6.633-14.74 14.74-14.74h58.477 122.794 58.477c8.107 0 16.1 6.746 14.768 14.74z" fill="#dddaec" fill-rule="evenodd"/></g><g><path clip-rule="evenodd" d="m426.273 504.5h-237.708c-12.047 0-21.911-9.865-21.911-21.94v-14.797c0-3.912 3.203-7.115 7.115-7.115h9.042 249.244 9.014c3.94 0 7.143 3.203 7.143 7.115v14.797c.001 12.075-9.864 21.94-21.939 21.94z" fill="#beb9dd" fill-rule="evenodd"/></g><g><path clip-rule="evenodd" d="m418.478 118.533c0-67.294-29.338-110.494-105.078-111.033h-11.962c-2.693.028-5.357.085-7.937.227 69.816 3.458 97.084 45.921 97.084 110.807v4.054c14.626 8.504 26.021 21.685 27.892 41.953v-46.008z" fill="#2b4d66" fill-rule="evenodd"/></g><g><path clip-rule="evenodd" d="m418.478 164.54c-1.871-20.268-13.266-33.449-27.892-41.953v41.953 33.676c0 7.37-1.276 15.109-3.657 22.904-7.143 23.358-24.122 47.339-45.977 64.687h27.864c21.883-17.348 38.862-41.329 45.977-64.687 2.409-7.795 3.685-15.534 3.685-22.904z" fill="#fed1a3" fill-rule="evenodd"/></g><g><path clip-rule="evenodd" d="m448.213 482.56v-14.797c0-3.912-3.203-7.115-7.143-7.115h-9.014-56.918c3.912 0 7.115 3.203 7.115 7.115v14.797c0 12.076-9.864 21.94-21.911 21.94h65.932c12.074 0 21.939-9.865 21.939-21.94z" fill="#a7a2d3" fill-rule="evenodd"/></g><g><path clip-rule="evenodd" d="m279.895 205.812h-31.52c-4.762 0-8.645-3.912-8.645-8.674v-34.328c0-4.734 3.883-8.646 8.645-8.646h31.52c4.762 0 8.645 3.912 8.645 8.646v16.639 17.688c.001 4.764-3.882 8.675-8.645 8.675z" fill="#9fd4fe" fill-rule="evenodd"/></g><g><path clip-rule="evenodd" d="m366.464 205.812h-31.521c-4.734 0-8.645-3.912-8.645-8.674v-17.688-16.639c0-4.734 3.912-8.646 8.645-8.646h31.521c4.762 0 8.674 3.912 8.674 8.646v34.328c-.001 4.762-3.912 8.673-8.674 8.673z" fill="#9fd4fe" fill-rule="evenodd"/></g><g><path clip-rule="evenodd" d="m490.958 444.859c0-33.251-14.711-63.978-48.641-79.512l-10.261-4.706v21.572c18.538 22.394 29.933 52.781 29.933 86.23 0 12.529-1.587 24.633-4.564 36.057h25.001c4.734-.17 8.532-4.082 8.532-8.844z" fill="#e5384f" fill-rule="evenodd"/></g><g><path clip-rule="evenodd" d="m288.541 179.45v-16.639c0-4.734-3.883-8.646-8.645-8.646h-15.76c4.762 0 8.645 3.912 8.645 8.646v34.328c0 4.762-3.883 8.674-8.645 8.674h15.76c4.762 0 8.645-3.912 8.645-8.674z" fill="#85beef" fill-rule="evenodd"/></g><g><path clip-rule="evenodd" d="m375.137 197.138v-34.328c0-4.734-3.912-8.646-8.674-8.646h-15.76c4.762 0 8.674 3.912 8.674 8.646v34.328c0 4.762-3.912 8.674-8.674 8.674h15.76c4.763 0 8.674-3.911 8.674-8.674z" fill="#85beef" fill-rule="evenodd"/></g><path clip-rule="evenodd" d="m324.767 363.079c0-9.581-7.767-17.348-17.348-17.348s-17.348 7.767-17.348 17.348 7.767 17.348 17.348 17.348 17.348-7.767 17.348-17.348z" fill="#3bc3a4" fill-rule="evenodd"/><g><path clip-rule="evenodd" d="m442.062 300.547c1.332-7.994-6.661-14.74-14.768-14.74h-58.477-15.675c28.516 22.932 46.487 59.273 46.487 93.374s-3.6 59.556-24.491 81.468h56.918z" fill="#beb9dd" fill-rule="evenodd"/></g><g><path clip-rule="evenodd" d="m211.384 346.383c0-52.555-42.604-95.159-95.185-95.159-52.553 0-95.157 42.605-95.157 95.159 0 52.583 42.604 95.188 95.157 95.188 52.581 0 95.185-42.605 95.185-95.188z" fill="#3bc3a4" fill-rule="evenodd"/></g><g><path clip-rule="evenodd" d="m211.384 346.383c0-23.017-8.164-44.136-21.77-60.577-17.461-21.147-43.851-34.583-73.416-34.583-5.839 0-11.537.51-17.093 1.531 35.971 13.578 61.567 48.331 61.567 89.065 0 12.302-2.324 24.066-6.576 34.866-5.471 13.89-14.116 26.192-25.029 36-12.841 11.509-28.799 19.587-46.459 22.791 10.46 3.94 21.77 6.094 33.59 6.094 2.608 0 5.216-.113 7.767-.312 21.514-1.729 41.016-10.63 56.125-24.293.907-.85 1.814-1.701 2.721-2.58 17.631-17.262 28.573-41.356 28.573-68.002z" fill="#00a887" fill-rule="evenodd"/></g><g><path d="m316.903 236.802c-2.531 2.54-5.894 3.938-9.47 3.938s-6.939-1.398-9.47-3.938c-2.924-2.935-7.673-2.943-10.606-.019-2.934 2.924-2.942 7.672-.019 10.606 5.366 5.385 12.502 8.35 20.095 8.35 7.592 0 14.729-2.965 20.095-8.35 2.924-2.934 2.916-7.683-.019-10.606-2.933-2.923-7.682-2.915-10.606.019z"/><path d="m296.041 197.138v-12.715c7.74-2.797 15.018-2.797 22.756 0v12.715c0 8.918 7.243 16.174 16.146 16.174h31.521c8.918 0 16.174-7.256 16.174-16.174v-34.328c0-8.903-7.255-16.146-16.174-16.146h-31.521c-8.903 0-16.146 7.243-16.146 16.146v5.955c-7.604-1.903-15.152-1.904-22.756 0v-5.955c0-8.903-7.243-16.146-16.146-16.146h-31.521c-8.903 0-16.146 7.243-16.146 16.146v34.328c0 8.918 7.243 16.174 16.146 16.174h31.521c8.903 0 16.146-7.255 16.146-16.174zm37.756-34.327c0-.589.557-1.146 1.146-1.146h31.521c.614 0 1.174.546 1.174 1.146v34.328c0 .625-.548 1.174-1.174 1.174h-31.521c-.6 0-1.146-.56-1.146-1.174zm-52.756 34.327c0 .625-.535 1.174-1.146 1.174h-31.521c-.61 0-1.146-.549-1.146-1.174v-34.328c0-.61.535-1.146 1.146-1.146h31.521c.61 0 1.146.535 1.146 1.146z"/><path d="m332.267 363.079c0-13.701-11.146-24.848-24.848-24.848s-24.848 11.147-24.848 24.848 11.146 24.848 24.848 24.848 24.848-11.147 24.848-24.848zm-34.695 0c0-5.43 4.417-9.848 9.848-9.848s9.848 4.418 9.848 9.848-4.417 9.848-9.848 9.848-9.848-4.418-9.848-9.848z"/><path d="m322.941 410.418c0-4.142-3.358-7.5-7.5-7.5h-16.043c-4.142 0-7.5 3.358-7.5 7.5s3.358 7.5 7.5 7.5h16.043c4.142 0 7.5-3.358 7.5-7.5z"/><path d="m130.267 311.074c.742-4.075-1.96-7.98-6.036-8.722-4.073-.741-7.98 1.96-8.722 6.036l-13.351 73.333c-.742 4.075 1.96 7.98 6.036 8.722.454.083.906.123 1.352.123 3.554 0 6.711-2.537 7.37-6.158z"/><path d="m144 375.721c1.465 1.466 3.386 2.2 5.307 2.2 1.918 0 3.836-.731 5.3-2.193l22.649-22.622c1.788-1.787 2.772-4.169 2.772-6.708s-.985-4.921-2.771-6.706l-22.648-22.649c-2.929-2.93-7.678-2.929-10.606 0-2.929 2.929-2.929 7.677 0 10.606l18.746 18.747-18.743 18.719c-2.93 2.927-2.933 7.676-.006 10.606z"/><path d="m88.422 317.042c-2.929-2.929-7.678-2.929-10.606 0l-22.648 22.649c-1.787 1.787-2.771 4.168-2.771 6.706s.984 4.92 2.774 6.71l22.648 22.621c1.464 1.462 3.382 2.193 5.3 2.193 1.921 0 3.842-.733 5.307-2.2 2.927-2.931 2.924-7.679-.007-10.606l-18.742-18.72 18.746-18.746c2.929-2.929 2.929-7.678-.001-10.607z"/></g></g><path d="m445.94 358.76s-.001 0-.001-.001l3.611-57.769c.34-5.73-1.7-11.25-5.76-15.55-4.27-4.53-10.28-7.13-16.5-7.13h-39.068c14.516-14.979 25.708-32.562 32.013-49.989 20.723-2.025 40.127-14.521 40.127-36.455v-9.779c0-13.811-11.273-25.046-25.131-25.046h-9.252v-38.507c0-22.226-3.158-41.588-9.385-57.548-1.505-3.859-5.853-5.769-9.713-4.261-3.859 1.505-5.767 5.854-4.261 9.713 5.546 14.215 8.359 31.743 8.359 52.096v10.738c-13.38-14.689-35.259-24.231-64.47-27.711-12.666-1.494-21.534.517-29.358 2.29-11.249 2.55-20.964 4.753-42.533-2.749-3.347-1.162-6.579-2.026-9.702-2.644-21.52-16.684-24.942-53.436-12.887-74.2 13.929-6.142 30.932-9.258 50.911-9.258h8.986c33.246 0 58.309 8.56 74.493 25.442 2.867 2.99 7.614 3.09 10.604.224s3.09-7.614.224-10.604c-19.122-19.948-47.829-30.062-85.321-30.062h-8.986c-20.747 0-38.792 3.102-54.023 9.25-2.626.916-9.525 4.41-11.28 5.395-8.591 4.821-16.073 10.823-22.411 18.002-17.476 19.792-26.337 48.688-26.337 85.886v38.507h-9.281c-13.842 0-25.103 11.236-25.103 25.046v9.779c0 21.944 19.408 34.441 40.127 36.458 6.302 17.423 17.489 35.005 31.996 49.987h-33.638c-18.82-21.21-46.27-34.59-76.79-34.59-56.61 0-102.66 46.06-102.66 102.66 0 56.63 46.05 102.69 102.66 102.69h.21v46.59c0 9.01 7.33 16.34 16.34 16.34h55.815.005 237.7.003 55.837c9.02 0 16.35-7.33 16.35-16.34v-50.8c0-39.24-19.14-70.6-52.52-86.1zm-.579-176.674v9.779c0 10.988-9.396 17.983-20.764 20.597.902-4.851 1.381-9.623 1.381-14.247v-26.175h9.252c5.586 0 10.131 4.507 10.131 10.046zm-241.472-63.553c0-33.433 7.597-58.988 22.581-75.958 1.558-1.764 3.232-3.418 4.968-5.015-1.66 8.685-1.856 18.028-.474 27.432 1.824 12.413 6.348 23.757 12.94 32.947-10.45 1.648-18.882 5.984-25.099 10.407-5.612 3.993-10.648 8.956-14.916 14.531zm-34.384 73.333v-9.779c0-5.54 4.532-10.046 10.103-10.046h9.281v26.175c0 4.626.479 9.399 1.381 14.252-11.366-2.611-20.765-9.608-20.765-20.602zm37.779 27.312c-.035-.131-.073-.261-.115-.389-2.136-7.064-3.28-14.005-3.28-20.574v-33.675c0-16 9.709-34.081 23.611-43.97 8.597-6.116 22.896-11.999 42.194-5.299 25.622 8.911 38.408 6.013 50.773 3.208 7.29-1.653 14.174-3.216 24.275-2.023 28.413 3.385 62.922 14.557 66.236 48.518v33.241c0 6.436-1.104 13.23-3.157 20.145-.15.378-.268.772-.355 1.177-6.465 20.722-21.44 42.41-41.316 58.773h-117.459c-19.978-16.462-35.007-38.306-41.407-59.132zm-91.084 214.892c-48.34 0-87.66-39.34-87.66-87.69 0-48.33 39.32-87.66 87.66-87.66 22.83 0 43.64 8.76 59.25 23.11 3.87 3.54 7.42 7.44 10.61 11.64 11.18 14.71 17.82 33.05 17.82 52.91 0 19.63-6.48 37.78-17.42 52.41-4.11 5.49-8.84 10.49-14.1 14.87-11.33 9.49-25.09 16.16-40.19 18.95-4.95.92-10.05 1.42-15.26 1.45-.24.01-.47.01-.71.01zm15.21 61.59v-47.72c15.4-2.29 29.69-8.01 42.07-16.37l1.351 21.578h-1.062c-8.059 0-14.615 6.556-14.615 14.615v14.797c0 5.245 1.384 10.17 3.796 14.44h-30.2c-.73 0-1.34-.62-1.34-1.34zm294.86 1.34h-237.7-.005c-7.946 0-14.411-6.478-14.411-14.44v-14.412h115.974c4.142 0 7.5-3.358 7.5-7.5s-3.358-7.5-7.5-7.5h-100.268l-2.08-33.228c19.18-18.65 31.1-44.73 31.1-73.54 0-19.41-5.42-37.57-14.82-53.07h223.23c2.07 0 4.16.9 5.59 2.41.84.9 1.81 2.38 1.7 4.36l-9.57 153.068h-100.272c-4.142 0-7.5 3.358-7.5 7.5s3.358 7.5 7.5 7.5h107.273c.016 0 .033.002.049.002.014 0 .028-.002.043-.002h8.61v14.412c0 7.962-6.478 14.44-14.44 14.44zm57.19-1.34c0 .71-.63 1.34-1.35 1.34h-30.197c2.414-4.27 3.8-9.195 3.8-14.44v-14.797c0-8.059-6.569-14.615-14.644-14.615h-1.031l4.881-78.088c33.37 18.38 38.54 51.23 38.54 69.8v50.8z"/></g></svg>